<?xml version="1.0" encoding="UTF-8"?>
<!DOCTYPE svg PUBLIC "-//W3C//DTD SVG 1.1//EN" "http://www.w3.org/Graphics/SVG/1.1/DTD/svg11.dtd">
<svg xmlns="http://www.w3.org/2000/svg" version="1.1" width="374px" height="374px" style="shape-rendering:geometricPrecision; text-rendering:geometricPrecision; image-rendering:optimizeQuality; fill-rule:evenodd; clip-rule:evenodd" xmlns:xlink="http://www.w3.org/1999/xlink">
<g><path style="opacity:0.983" fill="#1dd3e2" d="M 88.5,8.5 C 154.501,8.33334 220.501,8.5 286.5,9C 317.618,13.9689 341.452,29.8023 358,56.5C 366.562,72.7518 370.395,90.0852 369.5,108.5C 353.833,108.5 338.167,108.5 322.5,108.5C 320.825,81.3216 306.825,64.1549 280.5,57C 217.833,56.3333 155.167,56.3333 92.5,57C 71.7763,62.0567 58.6097,74.8901 53,95.5C 51.6051,137.151 51.1051,178.818 51.5,220.5C 36.1667,220.5 20.8333,220.5 5.5,220.5C 5.33334,176.832 5.50001,133.165 6,89.5C 12.1755,51.6498 33.3422,26.1498 69.5,13C 75.9124,11.2734 82.2457,9.7734 88.5,8.5 Z"/></g>
<g><path style="opacity:0.997" fill="#1ed2e2" d="M 208.5,280.5 C 199.636,270.469 189.97,261.302 179.5,253C 177.536,251.549 176.203,249.716 175.5,247.5C 197.436,227.065 218.936,206.065 240,184.5C 252.76,159.853 246.26,142.353 220.5,132C 208.947,129.688 198.614,132.188 189.5,139.5C 174.809,154.192 159.809,168.525 144.5,182.5C 132.542,172.876 121.209,162.543 110.5,151.5C 110.369,150.761 110.536,150.094 111,149.5C 127.195,132.971 143.695,116.804 160.5,101C 194.779,77.7376 229.112,77.7376 263.5,101C 286.77,122.473 295.937,148.973 291,180.5C 288.491,195.181 282.491,208.181 273,219.5C 251.939,240.397 230.439,260.731 208.5,280.5 Z"/></g>
<g><path style="opacity:0.988" fill="#115c7e" d="M 110.5,151.5 C 121.209,162.543 132.542,172.876 144.5,182.5C 141.949,185.558 139.115,188.558 136,191.5C 126.751,204.233 125.084,217.9 131,232.5C 141.929,248.78 156.762,253.78 175.5,247.5C 176.203,249.716 177.536,251.549 179.5,253C 189.97,261.302 199.636,270.469 208.5,280.5C 208.489,282.017 207.823,283.184 206.5,284C 184.302,298.138 160.636,301.471 135.5,294C 104.98,283.5 86.6466,262.333 80.5,230.5C 76.966,205.3 82.7993,182.633 98,162.5C 101.761,158.23 105.928,154.563 110.5,151.5 Z"/></g>
<g><path style="opacity:0.979" fill="#115c7e" d="M 323.5,154.5 C 338.5,154.5 353.5,154.5 368.5,154.5C 368.667,198.501 368.5,242.501 368,286.5C 364.471,312.735 352.304,333.902 331.5,350C 322.197,356.635 312.197,361.968 301.5,366C 297.203,367.158 292.869,368.158 288.5,369C 248.517,370.397 208.517,370.897 168.5,370.5C 168.929,366.976 170.429,363.976 173,361.5C 185.495,349.134 197.995,336.634 210.5,324C 233.168,322.509 255.834,322.175 278.5,323C 286.426,321.398 293.759,318.398 300.5,314C 304.601,310.609 308.268,306.776 311.5,302.5C 316.453,295.142 319.953,287.142 322,278.5C 322.178,237.125 322.678,195.792 323.5,154.5 Z"/></g>
<g><path style="opacity:0.984" fill="#125c7e" d="M 6.5,267.5 C 21.1705,267.333 35.8371,267.5 50.5,268C 53.1926,297.583 68.8593,316.083 97.5,323.5C 112.285,323.781 127.118,323.448 142,322.5C 145.441,321.94 146.774,323.273 146,326.5C 131.799,341.369 116.966,355.535 101.5,369C 80.772,369.978 62.1054,364.312 45.5,352C 35.8861,343.226 27.2195,333.726 19.5,323.5C 8.85549,306.258 4.52215,287.591 6.5,267.5 Z"/></g>
</svg>
